<svg width="36" height="40" viewBox="0 0 36 40" fill="none" xmlns="http://www.w3.org/2000/svg">
<path d="M25.9937 19.229L9.8511 2.89794C9.01171 2.04876 7.90428 1.51881 6.71843 1.39883L6.51508 1.37827C5.93821 1.31991 5.35615 1.33918 4.78438 1.4356C4.20126 1.53392 3.64196 1.74212 3.13602 2.04923L2.87846 2.20558C2.59282 2.37896 2.32949 2.58691 2.0944 2.82476C1.57633 3.34886 1.28564 4.0572 1.28564 4.79544V9.23043V33.8848C1.28564 35.0519 1.82571 36.1528 2.74739 36.8645C3.49593 37.4426 4.4139 37.756 5.35839 37.756H5.64589C6.78281 37.756 7.89395 37.416 8.83757 36.7796L8.92682 36.7195C10.217 35.8493 11.3388 34.751 12.2375 33.4781L12.3316 33.3448" stroke="white" stroke-width="2"/>
<path d="M10.0061 19.8172L26.1487 36.1484C26.9881 36.9976 28.0956 37.5275 29.2814 37.6475L29.4848 37.668C30.0616 37.7263 30.6436 37.7071 31.2155 37.6107C31.7986 37.5124 32.3578 37.3042 32.8638 36.9971L33.1213 36.8407C33.407 36.6674 33.6703 36.4594 33.9055 36.2216C34.4235 35.6974 34.7142 34.9891 34.7142 34.2509V29.8159V5.16156C34.7142 3.99445 34.174 2.89352 33.2524 2.18179C32.5039 1.60375 31.5859 1.29034 30.6414 1.29034H30.3539C29.217 1.29034 28.1059 1.63023 27.1623 2.26667L27.073 2.32686C25.7828 3.19702 24.661 4.2953 23.7623 5.56818L23.6682 5.70151" stroke="white" stroke-width="2"/>
</svg>
